<?xml version="1.0" encoding="utf-8"?>
<!-- Generator: Adobe Illustrator 17.1.0, SVG Export Plug-In . SVG Version: 6.00 Build 0)  -->
<!DOCTYPE svg PUBLIC "-//W3C//DTD SVG 1.1//EN" "http://www.w3.org/Graphics/SVG/1.1/DTD/svg11.dtd">
<svg version="1.1" xmlns="http://www.w3.org/2000/svg" xmlns:xlink="http://www.w3.org/1999/xlink" x="0px" y="0px"
	 viewBox="0 0 165 165" enable-background="new 0 0 165 165" xml:space="preserve">
<g id="Layer_2" display="none">
	<rect display="inline" width="165" height="165"/>
</g>
<g id="heart_in_hands">
	<circle fill="#FFFFFF" cx="82.4" cy="82.2" r="81.9"/>
	<g>
		<path fill="#FFFFFF" d="M96.5,94.6c2.5-3.6,2.2-11.8-4.6-12.8c-6.6-1-10.9,5-10.9,5s-5.8-7.9-12.4-4.8c-6.1,2.8-4.9,9.2-2.5,12.8
			c2.4,3.6,7.9,10.3,14.9,17v0.1c0,0,0,0,0-0.1c0,0,0,0,0,0.1v-0.1C88,105.1,94,98.3,96.5,94.6z"/>
		<linearGradient id="SVGID_1_" gradientUnits="userSpaceOnUse" x1="81.0232" y1="-11" x2="81.0232" y2="219.0618">
			<stop  offset="0" style="stop-color:#FF918D"/>
			<stop  offset="1" style="stop-color:#EB4947"/>
		</linearGradient>
		<path fill="url(#SVGID_1_)" d="M96.5,94.6c2.5-3.6,2.2-11.8-4.6-12.8c-6.6-1-10.9,5-10.9,5s-5.8-7.9-12.4-4.8
			c-6.1,2.8-4.9,9.2-2.5,12.8c2.4,3.6,7.9,10.3,14.9,17v0.1c0,0,0,0,0-0.1c0,0,0,0,0,0.1v-0.1C88,105.1,94,98.3,96.5,94.6z"/>
		<path fill="#FFFFFF" d="M35.5,50.8c-2.8,3.3-9.8,16.6-9.8,16.6C22.8,70,23.5,76,23.5,76s-0.8,14.8,3.3,21.8
			c4.1,7,7.7,22.4,7.7,22.4c9.3-7.3,4.6-22,4.6-22s-0.9-13.6-0.5-13.7c0.5-0.2,2.4-5.8,2.4-5.8c16.4-1.6,25.4-17.2,25.4-17.2
			c-5.7,19.6-25.6,28.3-25.6,29.7S40.4,98,40.4,98l2.5,0.8c4.1,1.7,8.2-0.9,8.2-0.9c1.7,0.1,2.1,0.3,2.2,0.4l1.1-11.1
			c10-22,25.6-20.5,25.6-20.5s0.8-8.1,0-15c-0.6-5-19.2-31-29.3-44.8c-7.9,3.3-15.2,7.9-21.6,13.4c3.8,8.6,7.4,17.1,8.6,20.2
			C40.4,47.4,35.5,50.8,35.5,50.8z"/>
		<linearGradient id="SVGID_2_" gradientUnits="userSpaceOnUse" x1="51.8978" y1="-11" x2="51.8978" y2="219.0618">
			<stop  offset="0" style="stop-color:#FF918D"/>
			<stop  offset="1" style="stop-color:#EB4947"/>
		</linearGradient>
		<path fill="url(#SVGID_2_)" d="M35.5,50.8c-2.8,3.3-9.8,16.6-9.8,16.6C22.8,70,23.5,76,23.5,76s-0.8,14.8,3.3,21.8
			c4.1,7,7.7,22.4,7.7,22.4c9.3-7.3,4.6-22,4.6-22s-0.9-13.6-0.5-13.7c0.5-0.2,2.4-5.8,2.4-5.8c16.4-1.6,25.4-17.2,25.4-17.2
			c-5.7,19.6-25.6,28.3-25.6,29.7S40.4,98,40.4,98l2.5,0.8c4.1,1.7,8.2-0.9,8.2-0.9c1.7,0.1,2.1,0.3,2.2,0.4l1.1-11.1
			c10-22,25.6-20.5,25.6-20.5s0.8-8.1,0-15c-0.6-5-19.2-31-29.3-44.8c-7.9,3.3-15.2,7.9-21.6,13.4c3.8,8.6,7.4,17.1,8.6,20.2
			C40.4,47.4,35.5,50.8,35.5,50.8z"/>
		<path fill="#FFFFFF" d="M53.3,98.2l0,0.1C53.3,98.3,53.4,98.3,53.3,98.2z"/>
		<linearGradient id="SVGID_3_" gradientUnits="userSpaceOnUse" x1="53.3483" y1="-11" x2="53.3483" y2="219.0618">
			<stop  offset="0" style="stop-color:#FF918D"/>
			<stop  offset="1" style="stop-color:#EB4947"/>
		</linearGradient>
		<path fill="url(#SVGID_3_)" d="M53.3,98.2l0,0.1C53.3,98.3,53.4,98.3,53.3,98.2z"/>
		<path fill="#FFFFFF" d="M61.8,69.4c0,0-12.7,12.2-20,11.1c0,0-0.3,2.1-1.7,4.4l0.1,3.8C40.2,88.7,59.3,76,61.8,69.4z"/>
		<linearGradient id="SVGID_4_" gradientUnits="userSpaceOnUse" x1="50.963" y1="-11" x2="50.963" y2="219.0618">
			<stop  offset="0" style="stop-color:#FF918D"/>
			<stop  offset="1" style="stop-color:#EB4947"/>
		</linearGradient>
		<path fill="url(#SVGID_4_)" d="M61.8,69.4c0,0-12.7,12.2-20,11.1c0,0-0.3,2.1-1.7,4.4l0.1,3.8C40.2,88.7,59.3,76,61.8,69.4z"/>
		<path fill="#FFFFFF" d="M55.4,116.8c-1.4-3.9-4.2-14.6-8.7-15.9c0,0-4.8,0.2-6.4-1.6c0,0,2.7,5.7,0.9,15.1c0,0,19,29.7,24.6,28.5
			c0,0,3.1-3.6-0.7-11S56.8,120.7,55.4,116.8z"/>
		<linearGradient id="SVGID_5_" gradientUnits="userSpaceOnUse" x1="53.5979" y1="-11" x2="53.5979" y2="219.0618">
			<stop  offset="0" style="stop-color:#FF918D"/>
			<stop  offset="1" style="stop-color:#EB4947"/>
		</linearGradient>
		<path fill="url(#SVGID_5_)" d="M55.4,116.8c-1.4-3.9-4.2-14.6-8.7-15.9c0,0-4.8,0.2-6.4-1.6c0,0,2.7,5.7,0.9,15.1
			c0,0,19,29.7,24.6,28.5c0,0,3.1-3.6-0.7-11S56.8,120.7,55.4,116.8z"/>
		<path fill="#FFFFFF" d="M69.6,120.2C54.1,112.4,53,99.6,53,99.6s-2-1.3-2.2-0.6c-0.2,0.6-2,1.7-2,1.7c3.6,2.7,8.7,17.5,8.7,17.5
			s4.8,8.5,7.6,11.6s3.7,9.4,3.7,9.4s3.6,3.8,6.7,2.9c3.2-0.8,1.6-6.7,1.6-6.7L69.6,120.2z"/>
		<linearGradient id="SVGID_6_" gradientUnits="userSpaceOnUse" x1="63.1133" y1="-11" x2="63.1133" y2="219.0618">
			<stop  offset="0" style="stop-color:#FF918D"/>
			<stop  offset="1" style="stop-color:#EB4947"/>
		</linearGradient>
		<path fill="url(#SVGID_6_)" d="M69.6,120.2C54.1,112.4,53,99.6,53,99.6s-2-1.3-2.2-0.6c-0.2,0.6-2,1.7-2,1.7
			c3.6,2.7,8.7,17.5,8.7,17.5s4.8,8.5,7.6,11.6s3.7,9.4,3.7,9.4s3.6,3.8,6.7,2.9c3.2-0.8,1.6-6.7,1.6-6.7L69.6,120.2z"/>
		<path fill="#FFFFFF" d="M77.2,122.4c-1.3,0.3-5.2-0.9-5.2-0.9l-0.1,0.4l6.6,13.6l0.9-0.3C82,131.5,78.4,122.1,77.2,122.4z"/>
		<linearGradient id="SVGID_7_" gradientUnits="userSpaceOnUse" x1="76.1523" y1="-11" x2="76.1523" y2="219.0618">
			<stop  offset="0" style="stop-color:#FF918D"/>
			<stop  offset="1" style="stop-color:#EB4947"/>
		</linearGradient>
		<path fill="url(#SVGID_7_)" d="M77.2,122.4c-1.3,0.3-5.2-0.9-5.2-0.9l-0.1,0.4l6.6,13.6l0.9-0.3C82,131.5,78.4,122.1,77.2,122.4z"
			/>
		<path fill="#FFFFFF" d="M108.6,98.3l0-0.1C108.5,98.3,108.6,98.3,108.6,98.3z"/>
		<linearGradient id="SVGID_8_" gradientUnits="userSpaceOnUse" x1="108.5841" y1="-11" x2="108.5841" y2="219.0618">
			<stop  offset="0" style="stop-color:#FF918D"/>
			<stop  offset="1" style="stop-color:#EB4947"/>
		</linearGradient>
		<path fill="url(#SVGID_8_)" d="M108.6,98.3l0-0.1C108.5,98.3,108.6,98.3,108.6,98.3z"/>
		<path fill="#FFFFFF" d="M81.9,66.6c0,0,15.6-1.4,25.6,20.5l1.1,11.1c0.1-0.1,0.5-0.3,2.2-0.4c0,0,4.1,2.7,8.2,0.9l2.5-0.8
			c0,0-0.5-5.4-0.5-6.8s-19.9-10.1-25.6-29.7c0,0,9,15.6,25.4,17.2c0,0,1.9,5.7,2.4,5.8c0.5,0.2-0.5,13.7-0.5,13.7s-4.7,14.7,4.6,22
			c0,0,3.6-15.5,7.7-22.4c4.1-7,3.3-21.8,3.3-21.8s0.6-6-2.2-8.7c0,0-7-13.3-9.8-16.6c0,0-4.9-3.3-2.2-10.4c1.3-3.4,5.3-13,9.1-22.2
			c-7.1-5.7-15.2-10.2-23.9-13.2c-8.7,13.2-27,41.4-27.6,46.6C81.1,58.5,81.9,66.6,81.9,66.6z"/>
		<linearGradient id="SVGID_9_" gradientUnits="userSpaceOnUse" x1="110.0345" y1="-11" x2="110.0345" y2="219.0618">
			<stop  offset="0" style="stop-color:#FF918D"/>
			<stop  offset="1" style="stop-color:#EB4947"/>
		</linearGradient>
		<path fill="url(#SVGID_9_)" d="M81.9,66.6c0,0,15.6-1.4,25.6,20.5l1.1,11.1c0.1-0.1,0.5-0.3,2.2-0.4c0,0,4.1,2.7,8.2,0.9l2.5-0.8
			c0,0-0.5-5.4-0.5-6.8s-19.9-10.1-25.6-29.7c0,0,9,15.6,25.4,17.2c0,0,1.9,5.7,2.4,5.8c0.5,0.2-0.5,13.7-0.5,13.7s-4.7,14.7,4.6,22
			c0,0,3.6-15.5,7.7-22.4c4.1-7,3.3-21.8,3.3-21.8s0.6-6-2.2-8.7c0,0-7-13.3-9.8-16.6c0,0-4.9-3.3-2.2-10.4c1.3-3.4,5.3-13,9.1-22.2
			c-7.1-5.7-15.2-10.2-23.9-13.2c-8.7,13.2-27,41.4-27.6,46.6C81.1,58.5,81.9,66.6,81.9,66.6z"/>
		<path fill="#FFFFFF" d="M121.8,84.9c-1.4-2.3-1.7-4.4-1.7-4.4c-7.3,1.2-20-11.1-20-11.1c2.5,6.6,21.6,19.3,21.6,19.3L121.8,84.9z"
			/>
		<linearGradient id="SVGID_10_" gradientUnits="userSpaceOnUse" x1="110.9694" y1="-11" x2="110.9694" y2="219.0618">
			<stop  offset="0" style="stop-color:#FF918D"/>
			<stop  offset="1" style="stop-color:#EB4947"/>
		</linearGradient>
		<path fill="url(#SVGID_10_)" d="M121.8,84.9c-1.4-2.3-1.7-4.4-1.7-4.4c-7.3,1.2-20-11.1-20-11.1c2.5,6.6,21.6,19.3,21.6,19.3
			L121.8,84.9z"/>
		<path fill="#FFFFFF" d="M121.7,99.3c-1.6,1.8-6.4,1.6-6.4,1.6c-4.5,1.3-7.4,12-8.7,15.9c-1.4,3.9-5.9,7.8-9.7,15.2
			c-3.8,7.4-0.7,11-0.7,11c5.7,1.2,24.6-28.5,24.6-28.5C119,105,121.7,99.3,121.7,99.3z"/>
		<linearGradient id="SVGID_11_" gradientUnits="userSpaceOnUse" x1="108.3345" y1="-11" x2="108.3345" y2="219.0618">
			<stop  offset="0" style="stop-color:#FF918D"/>
			<stop  offset="1" style="stop-color:#EB4947"/>
		</linearGradient>
		<path fill="url(#SVGID_11_)" d="M121.7,99.3c-1.6,1.8-6.4,1.6-6.4,1.6c-4.5,1.3-7.4,12-8.7,15.9c-1.4,3.9-5.9,7.8-9.7,15.2
			c-3.8,7.4-0.7,11-0.7,11c5.7,1.2,24.6-28.5,24.6-28.5C119,105,121.7,99.3,121.7,99.3z"/>
		<path fill="#FFFFFF" d="M104.4,118.2c0,0,5.2-14.7,8.7-17.5c0,0-1.8-1.1-2-1.7c-0.2-0.6-2.2,0.6-2.2,0.6s-1.2,12.7-16.6,20.5
			l-7.5,15.2c0,0-1.6,5.9,1.6,6.7c3.2,0.8,6.7-2.9,6.7-2.9s0.9-6.3,3.7-9.4C99.6,126.7,104.4,118.2,104.4,118.2z"/>
		<linearGradient id="SVGID_12_" gradientUnits="userSpaceOnUse" x1="98.819" y1="-11" x2="98.819" y2="219.0618">
			<stop  offset="0" style="stop-color:#FF918D"/>
			<stop  offset="1" style="stop-color:#EB4947"/>
		</linearGradient>
		<path fill="url(#SVGID_12_)" d="M104.4,118.2c0,0,5.2-14.7,8.7-17.5c0,0-1.8-1.1-2-1.7c-0.2-0.6-2.2,0.6-2.2,0.6
			s-1.2,12.7-16.6,20.5l-7.5,15.2c0,0-1.6,5.9,1.6,6.7c3.2,0.8,6.7-2.9,6.7-2.9s0.9-6.3,3.7-9.4C99.6,126.7,104.4,118.2,104.4,118.2
			z"/>
		<path fill="#FFFFFF" d="M89.9,121.4c0,0-3.9,1.3-5.2,0.9c-1.3-0.3-4.8,9.2-2.3,12.7l0.9,0.3l6.6-13.6L89.9,121.4z"/>
		<linearGradient id="SVGID_13_" gradientUnits="userSpaceOnUse" x1="85.78" y1="-11" x2="85.7801" y2="219.0618">
			<stop  offset="0" style="stop-color:#FF918D"/>
			<stop  offset="1" style="stop-color:#EB4947"/>
		</linearGradient>
		<path fill="url(#SVGID_13_)" d="M89.9,121.4c0,0-3.9,1.3-5.2,0.9c-1.3-0.3-4.8,9.2-2.3,12.7l0.9,0.3l6.6-13.6L89.9,121.4z"/>
	</g>
</g>
</svg>
