<?xml version="1.0" encoding="utf-8"?>
<!-- Generator: Adobe Illustrator 17.1.0, SVG Export Plug-In . SVG Version: 6.00 Build 0)  -->
<!DOCTYPE svg PUBLIC "-//W3C//DTD SVG 1.1//EN" "http://www.w3.org/Graphics/SVG/1.1/DTD/svg11.dtd">
<svg version="1.1" id="Layer_1" xmlns="http://www.w3.org/2000/svg" xmlns:xlink="http://www.w3.org/1999/xlink" x="0px" y="0px"
	 viewBox="0 0 165 165" enable-background="new 0 0 165 165" xml:space="preserve">
<g id="raised_hands">
	<circle fill="#FFFFFF" cx="82.4" cy="82.2" r="81.9"/>
	<g>
		<path fill="#FFFFFF" d="M72.1,75c0.1,0.2,0.2,0.4,0.3,0.6C72.3,75.3,72.2,75.1,72.1,75z"/>
		<path fill="#FFFFFF" d="M76.8,81.2c0,0.3,0,0.5,0.1,0.8C76.8,81.8,76.8,81.5,76.8,81.2z"/>
		<path fill="#FFFFFF" d="M93.3,141.2c0.2-5.2,0.3-10.4,0.2-15.6c-0.1-4.4-0.4-8.8-0.6-13.2c-0.2-3.7-0.4-7.4-0.7-11.1
			c-0.3-4.3-0.6-8.6-0.9-12.9c0-0.6,0.1-0.9,0.6-1.2c1-0.6,1.8-1.4,2.7-2.2c0-1.1-0.3-2.1-0.1-3.2c0.1-0.6,0.4-1.2,1-1.5
			c0.7-0.3,1.2-0.2,1.8,0.4c0.1,0.1,0.2,0.2,0.3,0.3c0.3-0.5,0.6-1,0.9-1.5c0-0.6-0.1-1.2-0.1-1.7c-0.1-0.7-0.1-1.4,0.2-2
			c0.3-0.6,0.7-0.9,1.3-1.1c0.5-2.1,0.4-4.3,0.3-6.5c-0.2-3.8-0.5-7.5-0.8-11.3c-0.2-2.3,0-4.7-0.1-7c0-0.8-0.2-1.6-0.6-2.4
			c-0.5-0.7-1.2-1-2-0.9s-1.3,0.6-1.6,1.3c-0.3,0.7-0.4,1.4-0.4,2.1c0,3.9,0,7.7,0,11.6c0,0.5,0,1.1,0,1.6s-0.6,0.8-1,0.5
			c-0.3-0.2-0.2-0.5-0.2-0.7c0-6.5,0-13.1,0-19.6c0-0.9-0.2-1.7-0.7-2.5c-0.6-0.9-1.5-1.2-2.5-1.1c-0.9,0.1-1.4,0.8-1.7,1.6
			c-0.3,0.7-0.3,1.4-0.3,2.1c0,5.9,0,11.8,0,17.6c0,0.2,0,0.3,0,0.5c0,0.3-0.1,0.4-0.4,0.4c-0.7,0.3-0.9,0-0.9-0.7
			c0-7.1,0-14.1,0-21.2c0-2.1-0.6-3.1-2.4-4.1c-0.3,0-0.6,0-1,0c-0.9,1-1.5,1.4-1.7,2.4c-0.1,0.5-0.2,1.2-0.2,1.7c0,2.9,0,5.8,0,8.7
			c0,4.4,0,8.9,0,13.3c0,0.6-0.3,0.9-0.8,0.7c-0.4-0.1-0.4-0.5-0.4-0.8c0-5.8,0-11.6,0-17.4c0-0.8-0.1-1.6-0.5-2.3
			c-0.5-0.8-1.2-1.2-2.2-1.1c-0.9,0.1-1.3,0.7-1.6,1.4c-0.2,0.6-0.3,1.1-0.3,1.7c-0.1,2.2-0.2,4.4-0.3,6.7
			c-0.2,4.8-0.3,9.6-0.1,14.5c0,1,0.1,2,0.2,3c-0.2-0.1-0.2-0.2-0.3-0.4c-0.6-1.5-1.2-3-1.9-4.5c-0.8-1.6-1.2-3.3-2.3-4.7
			c-0.8-1-1.6-1.9-2.9-2.1c-1.5-0.3-2.5,0.8-2.2,2.2c0.2,0.8,0.4,1.5,0.8,2.2c2.2,4.1,3.4,8.5,4.2,13c0.4,0.2,0.7,0.4,0.9,0.7
			c0.1,0.2,0.2,0.4,0.3,0.6c0.1,0.3,0.2,0.7,0.2,1.1c0,0.8,0,1.6,0,2.4c0.3,0.4,0.7,0.8,1,1.2c0.3-0.7,0.7-1.1,1.5-1.1
			c0.7,0,1.3,0.5,1.5,1.3c0.1,0.3,0.1,0.5,0.2,0.8c0,0.3,0,0.5,0.1,0.8c0,0.3,0,0.5,0,0.8s0,0.5,0,0.8c1.6,1.3,3.1,2.5,4.8,3.7
			c0.3,0.2,0.3,0.5,0.3,0.8c-0.5,4.5-1,8.9-1.5,13.4c-0.5,4.3-0.9,8.7-1.3,13c-0.4,4.4-0.8,8.8-1,13.3c-0.3,8.6-0.1,17.2-0.2,25.8
			c0,3.5,0,6.9,0,10.4c1.4,0.1,2.9,0.1,4.4,0.1c3.4,0,6.7-0.2,9.9-0.6c0.1-2.1,0.2-4.3,0.3-6.4C92.9,151.8,93.1,146.5,93.3,141.2z"
			/>
		
			<linearGradient id="SVGID_1_" gradientUnits="userSpaceOnUse" x1="83.1642" y1="128.4456" x2="83.1642" y2="0.7622" gradientTransform="matrix(1 0 0 -1 0 165)">
			<stop  offset="0" style="stop-color:#FF918D"/>
			<stop  offset="1" style="stop-color:#EB4947"/>
		</linearGradient>
		<path fill="url(#SVGID_1_)" d="M93.3,141.2c0.2-5.2,0.3-10.4,0.2-15.6c-0.1-4.4-0.4-8.8-0.6-13.2c-0.2-3.7-0.4-7.4-0.7-11.1
			c-0.3-4.3-0.6-8.6-0.9-12.9c0-0.6,0.1-0.9,0.6-1.2c1-0.6,1.8-1.4,2.7-2.2c0-1.1-0.3-2.1-0.1-3.2c0.1-0.6,0.4-1.2,1-1.5
			c0.7-0.3,1.2-0.2,1.8,0.4c0.1,0.1,0.2,0.2,0.3,0.3c0.3-0.5,0.6-1,0.9-1.5c0-0.6-0.1-1.2-0.1-1.7c-0.1-0.7-0.1-1.4,0.2-2
			c0.3-0.6,0.7-0.9,1.3-1.1c0.5-2.1,0.4-4.3,0.3-6.5c-0.2-3.8-0.5-7.5-0.8-11.3c-0.2-2.3,0-4.7-0.1-7c0-0.8-0.2-1.6-0.6-2.4
			c-0.5-0.7-1.2-1-2-0.9s-1.3,0.6-1.6,1.3c-0.3,0.7-0.4,1.4-0.4,2.1c0,3.9,0,7.7,0,11.6c0,0.5,0,1.1,0,1.6s-0.6,0.8-1,0.5
			c-0.3-0.2-0.2-0.5-0.2-0.7c0-6.5,0-13.1,0-19.6c0-0.9-0.2-1.7-0.7-2.5c-0.6-0.9-1.5-1.2-2.5-1.1c-0.9,0.1-1.4,0.8-1.7,1.6
			c-0.3,0.7-0.3,1.4-0.3,2.1c0,5.9,0,11.8,0,17.6c0,0.2,0,0.3,0,0.5c0,0.3-0.1,0.4-0.4,0.4c-0.7,0.3-0.9,0-0.9-0.7
			c0-7.1,0-14.1,0-21.2c0-2.1-0.6-3.1-2.4-4.1c-0.3,0-0.6,0-1,0c-0.9,1-1.5,1.4-1.7,2.4c-0.1,0.5-0.2,1.2-0.2,1.7c0,2.9,0,5.8,0,8.7
			c0,4.4,0,8.9,0,13.3c0,0.6-0.3,0.9-0.8,0.7c-0.4-0.1-0.4-0.5-0.4-0.8c0-5.8,0-11.6,0-17.4c0-0.8-0.1-1.6-0.5-2.3
			c-0.5-0.8-1.2-1.2-2.2-1.1c-0.9,0.1-1.3,0.7-1.6,1.4c-0.2,0.6-0.3,1.1-0.3,1.7c-0.1,2.2-0.2,4.4-0.3,6.7
			c-0.2,4.8-0.3,9.6-0.1,14.5c0,1,0.1,2,0.2,3c-0.2-0.1-0.2-0.2-0.3-0.4c-0.6-1.5-1.2-3-1.9-4.5c-0.8-1.6-1.2-3.3-2.3-4.7
			c-0.8-1-1.6-1.9-2.9-2.1c-1.5-0.3-2.5,0.8-2.2,2.2c0.2,0.8,0.4,1.5,0.8,2.2c2.2,4.1,3.4,8.5,4.2,13c0.4,0.2,0.7,0.4,0.9,0.7
			c0.1,0.2,0.2,0.4,0.3,0.6c0.1,0.3,0.2,0.7,0.2,1.1c0,0.8,0,1.6,0,2.4c0.3,0.4,0.7,0.8,1,1.2c0.3-0.7,0.7-1.1,1.5-1.1
			c0.7,0,1.3,0.5,1.5,1.3c0.1,0.3,0.1,0.5,0.2,0.8c0,0.3,0,0.5,0.1,0.8c0,0.3,0,0.5,0,0.8s0,0.5,0,0.8c1.6,1.3,3.1,2.5,4.8,3.7
			c0.3,0.2,0.3,0.5,0.3,0.8c-0.5,4.5-1,8.9-1.5,13.4c-0.5,4.3-0.9,8.7-1.3,13c-0.4,4.4-0.8,8.8-1,13.3c-0.3,8.6-0.1,17.2-0.2,25.8
			c0,3.5,0,6.9,0,10.4c1.4,0.1,2.9,0.1,4.4,0.1c3.4,0,6.7-0.2,9.9-0.6c0.1-2.1,0.2-4.3,0.3-6.4C92.9,151.8,93.1,146.5,93.3,141.2z"
			/>
		<path fill="#FFFFFF" d="M128.7,142.5c0.1-2.1,0.3-4.2,0.5-6.4c0.1-1.3,0.2-2.6,0.3-3.8c0.2-2.8,0.3-5.7,0.5-8.5
			c0.1-1.7,0.1-3.3,0.2-5c0-0.4,0.1-0.9,0.1-1.3c-0.6-1.2-1.3-2.4-1.5-3.7c-0.1-0.4-0.1-0.8,0-1.2c0.5-3.1,0.7-6.2,0.1-9.2
			c-0.1-0.4-0.1-0.9-0.1-1.3c0-1.4,0.7-1.9,2-1.3c0.1-0.1,0.1-0.2,0.1-0.4c0-1.5,0-3,0.1-4.5c0-0.3,0.1-0.5,0.4-0.7
			c1.7-1.1,3.3-2.3,4.8-3.6c1.9-1.8,3.5-3.6,3.9-6.4c0.5-3.1,1.4-6.2,3-9c0.5-1,1.1-2,1.4-3.1c0.4-1.3-0.3-2.2-1.7-2.1
			c-0.5,0-0.8,0.2-1.2,0.5c-1.1,0.7-1.7,1.8-2.3,2.9c-0.9,1.9-1.9,3.8-2.7,5.7c0-0.1-0.1-0.3,0-0.4c0.3-1.8,0.3-3.7,0.4-5.6
			c0.1-2.4,0.1-4.9,0.1-7.3c0-2.2,0.1-4.5-0.1-6.7c-0.1-1-0.6-1.8-1.3-1.9c-1-0.1-1.8,0.4-2.2,1.4c-0.2,0.6-0.3,1.1-0.3,1.7
			c-0.1,2.3-0.1,4.7-0.2,7c-0.1,1.9-0.1,3.8-0.2,5.7c0,0.4,0,0.7-0.1,1.1c0,0.3-0.1,0.5-0.5,0.4c-0.4,0-0.4-0.2-0.4-0.5
			c0-0.7,0.1-1.4,0.1-2.1c0.1-2.9,0.2-5.7,0.3-8.6c0-0.4,0-0.9,0-1.3c0.1-2.2,0.3-4.4,0.2-6.6c0-1.5-1-2.3-2.3-2.1
			c-0.9,0.1-1.6,0.9-1.8,2c-0.2,1.3-0.1,2.6-0.2,4c-0.2,2.7-0.2,5.4-0.3,8.2c-0.1,2-0.2,3.9-0.2,5.9c0,0.3-0.1,0.5-0.5,0.5
			s-0.4-0.2-0.4-0.5c0-0.8,0.1-1.6,0.1-2.4c0.1-2.8,0.2-5.5,0.3-8.3c0-1.6,0.2-3.1,0.1-4.7c-0.1-1.6-1.2-2.5-2.6-2.1
			c-0.9,0.3-1.3,1.1-1.5,2c-0.3,1.3-0.1,2.7-0.2,4c-0.2,2.7-0.2,5.5-0.3,8.2c0,1.4-0.1,2.9-0.1,4.3c0,0.3-0.1,0.6-0.5,0.6
			s-0.5-0.3-0.5-0.6v-0.1c0.2-1.3,0.1-2.7,0.2-4c0.2-2.2,0.1-4.4,0.2-6.6c0-0.5-0.1-1-0.3-1.5c-0.5-1-1.8-1.3-2.6-0.5
			c-0.6,0.6-0.8,1.4-0.8,2.2c0,3-0.2,5.9-0.6,8.9c-0.3,2.3-0.5,4.7-0.7,7c-0.1,1.8,0.1,3.6,0.4,5.3c1.4-0.3,2.2,0.5,1.9,1.9
			c-0.1,0.6-0.4,1.3-0.5,1.9c0.5,0.7,0.9,1.4,1.4,2c0.9,1.2,1.9,2.3,3.1,3.1c0.3,0.2,0.5,0.5,0.4,0.9c-0.3,1.7-0.5,3.4-0.8,5.1
			c-0.3,2.3-0.7,4.6-1,6.8c-0.4,2.3-0.7,4.6-1.1,6.9c-0.3,1.8-0.5,3.6-0.8,5.4c-0.3,1.9-0.5,3.7-0.8,5.6c-0.2,1.7-0.5,3.4-0.7,5.1
			c-0.3,2.2-0.5,4.3-0.7,6.5c-0.1,1.1-0.2,2.2-0.3,3.4c-0.2,2.2-0.3,4.4-0.5,6.7c0,0.8-0.1,1.5-0.1,2.3c-0.1,2.5-0.2,5-0.4,7.5
			c4.1-1.9,8.1-4.1,11.8-6.6c0.1-1.3,0.2-2.6,0.3-3.9C128.5,145,128.6,143.8,128.7,142.5z"/>
		
			<linearGradient id="SVGID_2_" gradientUnits="userSpaceOnUse" x1="130.5058" y1="127.9785" x2="130.5058" y2="0.7625" gradientTransform="matrix(1 0 0 -1 0 165)">
			<stop  offset="0" style="stop-color:#FF918D"/>
			<stop  offset="1" style="stop-color:#EB4947"/>
		</linearGradient>
		<path fill="url(#SVGID_2_)" d="M128.7,142.5c0.1-2.1,0.3-4.2,0.5-6.4c0.1-1.3,0.2-2.6,0.3-3.8c0.2-2.8,0.3-5.7,0.5-8.5
			c0.1-1.7,0.1-3.3,0.2-5c0-0.4,0.1-0.9,0.1-1.3c-0.6-1.2-1.3-2.4-1.5-3.7c-0.1-0.4-0.1-0.8,0-1.2c0.5-3.1,0.7-6.2,0.1-9.2
			c-0.1-0.4-0.1-0.9-0.1-1.3c0-1.4,0.7-1.9,2-1.3c0.1-0.1,0.1-0.2,0.1-0.4c0-1.5,0-3,0.1-4.5c0-0.3,0.1-0.5,0.4-0.7
			c1.7-1.1,3.3-2.3,4.8-3.6c1.9-1.8,3.5-3.6,3.9-6.4c0.5-3.1,1.4-6.2,3-9c0.5-1,1.1-2,1.4-3.1c0.4-1.3-0.3-2.2-1.7-2.1
			c-0.5,0-0.8,0.2-1.2,0.5c-1.1,0.7-1.7,1.8-2.3,2.9c-0.9,1.9-1.9,3.8-2.7,5.7c0-0.1-0.1-0.3,0-0.4c0.3-1.8,0.3-3.7,0.4-5.6
			c0.1-2.4,0.1-4.9,0.1-7.3c0-2.2,0.1-4.5-0.1-6.7c-0.1-1-0.6-1.8-1.3-1.9c-1-0.1-1.8,0.4-2.2,1.4c-0.2,0.6-0.3,1.1-0.3,1.7
			c-0.1,2.3-0.1,4.7-0.2,7c-0.1,1.9-0.1,3.8-0.2,5.7c0,0.4,0,0.7-0.1,1.1c0,0.3-0.1,0.5-0.5,0.4c-0.4,0-0.4-0.2-0.4-0.5
			c0-0.7,0.1-1.4,0.1-2.1c0.1-2.9,0.2-5.7,0.3-8.6c0-0.4,0-0.9,0-1.3c0.1-2.2,0.3-4.4,0.2-6.6c0-1.5-1-2.3-2.3-2.1
			c-0.9,0.1-1.6,0.9-1.8,2c-0.2,1.3-0.1,2.6-0.2,4c-0.2,2.7-0.2,5.4-0.3,8.2c-0.1,2-0.2,3.9-0.2,5.9c0,0.3-0.1,0.5-0.5,0.5
			s-0.4-0.2-0.4-0.5c0-0.8,0.1-1.6,0.1-2.4c0.1-2.8,0.2-5.5,0.3-8.3c0-1.6,0.2-3.1,0.1-4.7c-0.1-1.6-1.2-2.5-2.6-2.1
			c-0.9,0.3-1.3,1.1-1.5,2c-0.3,1.3-0.1,2.7-0.2,4c-0.2,2.7-0.2,5.5-0.3,8.2c0,1.4-0.1,2.9-0.1,4.3c0,0.3-0.1,0.6-0.5,0.6
			s-0.5-0.3-0.5-0.6v-0.1c0.2-1.3,0.1-2.7,0.2-4c0.2-2.2,0.1-4.4,0.2-6.6c0-0.5-0.1-1-0.3-1.5c-0.5-1-1.8-1.3-2.6-0.5
			c-0.6,0.6-0.8,1.4-0.8,2.2c0,3-0.2,5.9-0.6,8.9c-0.3,2.3-0.5,4.7-0.7,7c-0.1,1.8,0.1,3.6,0.4,5.3c1.4-0.3,2.2,0.5,1.9,1.9
			c-0.1,0.6-0.4,1.3-0.5,1.9c0.5,0.7,0.9,1.4,1.4,2c0.9,1.2,1.9,2.3,3.1,3.1c0.3,0.2,0.5,0.5,0.4,0.9c-0.3,1.7-0.5,3.4-0.8,5.1
			c-0.3,2.3-0.7,4.6-1,6.8c-0.4,2.3-0.7,4.6-1.1,6.9c-0.3,1.8-0.5,3.6-0.8,5.4c-0.3,1.9-0.5,3.7-0.8,5.6c-0.2,1.7-0.5,3.4-0.7,5.1
			c-0.3,2.2-0.5,4.3-0.7,6.5c-0.1,1.1-0.2,2.2-0.3,3.4c-0.2,2.2-0.3,4.4-0.5,6.7c0,0.8-0.1,1.5-0.1,2.3c-0.1,2.5-0.2,5-0.4,7.5
			c4.1-1.9,8.1-4.1,11.8-6.6c0.1-1.3,0.2-2.6,0.3-3.9C128.5,145,128.6,143.8,128.7,142.5z"/>
		<path fill="#FFFFFF" d="M54.7,140.1c-0.4-4.7-0.8-9.4-1.4-14.1c-0.8-5.6-1.6-11.1-2.5-16.7c-0.6-4-1.3-8.1-2-12.1
			c0-0.2-0.1-0.4,0.1-0.6c2.1-1.7,3.6-3.9,4.7-6.4c-0.2-0.6-0.5-1.1-0.7-1.8c-0.3-1.3,0.1-1.9,1.5-1.9c0.2-0.2,0.1-0.5,0.1-0.8
			c0.1-2-0.1-3.9-0.4-5.9c-0.6-4.1-1.5-8.3-1.7-12.5c0-0.6-0.1-1.2-0.4-1.8c-0.4-0.8-1.1-1.3-1.8-1.1c-0.8,0.1-1.3,0.7-1.4,1.7
			c-0.1,0.8,0,1.6,0.1,2.3c0.2,3,0.5,5.9,0.8,8.9c0,0.3,0.1,0.7-0.4,0.7c-0.4,0-0.5-0.3-0.5-0.6c-0.4-4.9-0.8-9.7-1.3-14.6
			c-0.1-0.8-0.1-1.7-0.6-2.4s-1.2-1-2.1-0.8c-0.8,0.1-1.1,0.6-1.3,1.3c-0.1,0.4-0.2,0.8-0.1,1.2c0.2,2.3,0.4,4.5,0.6,6.8
			c0.2,2.6,0.4,5.1,0.7,7.7c0,0.3,0,0.6-0.4,0.7c-0.5,0-0.5-0.3-0.5-0.6c-0.1-1.4-0.2-2.8-0.4-4.2c-0.3-4-0.7-8-1-11.9
			c-0.1-0.8-0.2-1.5-0.6-2.2c-0.5-0.7-1.2-0.9-2-0.8c-0.7,0.1-1.1,0.6-1.3,1.3c-0.1,0.3-0.1,0.7-0.1,1c0.1,1.3,0.2,2.5,0.3,3.8
			c0.4,4.7,0.8,9.4,1.3,14c0,0.3,0,0.5-0.4,0.6c-0.3,0-0.5-0.1-0.5-0.5c-0.1-1.2-0.2-2.5-0.3-3.7c-0.3-3.4-0.6-6.8-0.9-10.2
			c-0.1-0.6-0.2-1.2-0.6-1.6c-0.4-0.6-1-0.8-1.7-0.7s-1,0.6-1.2,1.2c-0.1,0.4-0.2,0.9-0.1,1.3c0.2,3.1,0.3,6.2,0.5,9.4
			c0.1,2,0.3,4,0.6,6c0.1,1.1,0.3,2.2,0.4,3.3c-0.3-0.2-0.4-0.5-0.5-0.8c-1-1.9-2-3.9-3.2-5.7c-0.6-0.9-1.4-1.6-2.5-1.8
			c-1.3-0.3-2.2,0.6-1.8,1.9c0.2,0.6,0.4,1.1,0.7,1.6c2.2,3.4,3.6,7.1,4.4,11.1c0.2,0.8,0.5,1.6,1,2.2c0.6,0.8,1.3,1.6,2.1,2.2
			c1.7,1.4,3.5,2.6,5.4,3.7c0.4,0.2,0.6,0.5,0.6,1c0,0.7,0,1.5,0.1,2.2c0.1,3.6,0.2,7.3,0.2,10.9c0.1,4.4,0.2,8.7,0.4,13.1
			c0.1,3.7,0.2,7.3,0.5,11c0.3,4.5,0.7,9,1.2,13.6c0.2,2.1,0.4,4.2,0.6,6.2c3.7,1.9,7.6,3.6,11.6,4.9c-0.3-3.7-0.5-7.3-0.8-11
			C55.1,145.9,54.9,143,54.7,140.1z"/>
		
			<linearGradient id="SVGID_3_" gradientUnits="userSpaceOnUse" x1="42.1521" y1="127.9785" x2="42.1521" y2="0.7625" gradientTransform="matrix(1 0 0 -1 0 165)">
			<stop  offset="0" style="stop-color:#FF918D"/>
			<stop  offset="1" style="stop-color:#EB4947"/>
		</linearGradient>
		<path fill="url(#SVGID_3_)" d="M54.7,140.1c-0.4-4.7-0.8-9.4-1.4-14.1c-0.8-5.6-1.6-11.1-2.5-16.7c-0.6-4-1.3-8.1-2-12.1
			c0-0.2-0.1-0.4,0.1-0.6c2.1-1.7,3.6-3.9,4.7-6.4c-0.2-0.6-0.5-1.1-0.7-1.8c-0.3-1.3,0.1-1.9,1.5-1.9c0.2-0.2,0.1-0.5,0.1-0.8
			c0.1-2-0.1-3.9-0.4-5.9c-0.6-4.1-1.5-8.3-1.7-12.5c0-0.6-0.1-1.2-0.4-1.8c-0.4-0.8-1.1-1.3-1.8-1.1c-0.8,0.1-1.3,0.7-1.4,1.7
			c-0.1,0.8,0,1.6,0.1,2.3c0.2,3,0.5,5.9,0.8,8.9c0,0.3,0.1,0.7-0.4,0.7c-0.4,0-0.5-0.3-0.5-0.6c-0.4-4.9-0.8-9.7-1.3-14.6
			c-0.1-0.8-0.1-1.7-0.6-2.4s-1.2-1-2.1-0.8c-0.8,0.1-1.1,0.6-1.3,1.3c-0.1,0.4-0.2,0.8-0.1,1.2c0.2,2.3,0.4,4.5,0.6,6.8
			c0.2,2.6,0.4,5.1,0.7,7.7c0,0.3,0,0.6-0.4,0.7c-0.5,0-0.5-0.3-0.5-0.6c-0.1-1.4-0.2-2.8-0.4-4.2c-0.3-4-0.7-8-1-11.9
			c-0.1-0.8-0.2-1.5-0.6-2.2c-0.5-0.7-1.2-0.9-2-0.8c-0.7,0.1-1.1,0.6-1.3,1.3c-0.1,0.3-0.1,0.7-0.1,1c0.1,1.3,0.2,2.5,0.3,3.8
			c0.4,4.7,0.8,9.4,1.3,14c0,0.3,0,0.5-0.4,0.6c-0.3,0-0.5-0.1-0.5-0.5c-0.1-1.2-0.2-2.5-0.3-3.7c-0.3-3.4-0.6-6.8-0.9-10.2
			c-0.1-0.6-0.2-1.2-0.6-1.6c-0.4-0.6-1-0.8-1.7-0.7s-1,0.6-1.2,1.2c-0.1,0.4-0.2,0.9-0.1,1.3c0.2,3.1,0.3,6.2,0.5,9.4
			c0.1,2,0.3,4,0.6,6c0.1,1.1,0.3,2.2,0.4,3.3c-0.3-0.2-0.4-0.5-0.5-0.8c-1-1.9-2-3.9-3.2-5.7c-0.6-0.9-1.4-1.6-2.5-1.8
			c-1.3-0.3-2.2,0.6-1.8,1.9c0.2,0.6,0.4,1.1,0.7,1.6c2.2,3.4,3.6,7.1,4.4,11.1c0.2,0.8,0.5,1.6,1,2.2c0.6,0.8,1.3,1.6,2.1,2.2
			c1.7,1.4,3.5,2.6,5.4,3.7c0.4,0.2,0.6,0.5,0.6,1c0,0.7,0,1.5,0.1,2.2c0.1,3.6,0.2,7.3,0.2,10.9c0.1,4.4,0.2,8.7,0.4,13.1
			c0.1,3.7,0.2,7.3,0.5,11c0.3,4.5,0.7,9,1.2,13.6c0.2,2.1,0.4,4.2,0.6,6.2c3.7,1.9,7.6,3.6,11.6,4.9c-0.3-3.7-0.5-7.3-0.8-11
			C55.1,145.9,54.9,143,54.7,140.1z"/>
		<path fill="#FFFFFF" d="M110.3,142.6c0.2-3.8,0.1-7.6,0.1-11.3c0-3.1-0.2-6.2-0.4-9.4c-0.2-3.7-0.4-7.4-0.6-11.2
			c0-0.1,0-0.3-0.1-0.4c-0.1-0.5,0-0.9,0.5-1.3c2-1.7,3.9-3.5,5.4-5.8c0.7-1.1,1.1-2.3,1.1-3.6c0.2-3.3,0.6-6.5,1.9-9.6
			c0.1-0.1,0.1-0.3,0.2-0.4c0.2-0.6,0.4-1.3,0.5-1.9c0.3-1.4-0.5-2.1-1.9-1.9c-1.4,0.7-2.1,1.8-2.6,3.2c-0.4,1.2-0.8,2.4-1.2,3.6
			c-0.3,0.7-0.4,1.5-0.8,2.3c0-2.1-0.1-4.1-0.3-6.1c-0.3-3.2-0.6-6.4-1.1-9.6c-0.2-1.1-0.2-2.3-0.6-3.3c-0.3-0.7-0.7-1.1-1.4-1.1
			c-0.7,0-1.2,0.4-1.5,1.1c-0.2,0.6-0.2,1.3-0.2,2c0.2,2.2,0.4,4.4,0.6,6.6c0.2,2,0.3,4,0.5,6c0,0.3-0.1,0.6-0.4,0.6
			s-0.4-0.2-0.5-0.5c-0.2-2.1-0.4-4.1-0.6-6.2c-0.3-3-0.5-6.1-0.8-9.1c-0.1-0.8-0.1-1.5-0.4-2.3c-0.4-0.9-0.9-1.3-1.7-1.2
			c-1.2,0.1-2,1.2-1.9,2.7c0.1,1.2,0.2,2.4,0.3,3.6c0.2,2.1,0.4,4.3,0.6,6.4c0.2,1.9,0.3,3.9,0.5,5.8c0,0.3,0,0.6-0.4,0.7
			c-0.4,0-0.4-0.3-0.5-0.6c-0.1-1.5-0.3-3.1-0.4-4.6c-0.3-3-0.5-5.9-0.8-8.9c-0.1-1.5-0.9-2.5-2.3-2.3c-0.6,0.2-1.1,0.5-1.3,1.1
			c-0.3,0.6-0.3,1.3-0.2,2c0.1,0.6,0.1,1.2,0.1,1.7c0.2,0.8,0.2,1.7,0.3,2.5c0.3,3.2,0.6,6.5,0.9,9.7c0,0.2,0,0.3,0,0.5
			c0,0.3-0.1,0.4-0.4,0.4s-0.4-0.1-0.5-0.4c-0.1-1.3-0.2-2.7-0.4-4c-0.2-2.1-0.3-4.2-0.6-6.2c0-0.3-0.2-0.6-0.2-0.9l0,0l0,0
			c-0.1-0.1-0.2-0.2-0.3-0.3c-0.6-0.6-1.1-0.8-1.8-0.4c-0.6,0.3-0.9,0.8-1,1.5c-0.2,1.1,0.1,2.1,0.1,3.2c0.2,0.9,0.2,1.8,0.3,2.6
			c0.1,3,0.1,6,0.1,9c0.1,3.6,1,7,3.4,9.8c1.1,1.3,2.3,2.5,3.9,3.3c0.5,0.2,0.6,0.5,0.5,1c-0.5,3.6-1.1,7.2-1.6,10.8
			c-0.5,3.3-0.9,6.5-1.3,9.8c-0.3,2.6-0.6,5.2-0.8,7.8c-0.2,3.3-0.3,6.5-0.4,9.8c-0.1,4.5-0.1,9.1-0.1,13.6
			c3.9-0.8,7.7-1.8,11.4-3.2c0-2.7,0.1-5.4,0.1-8.1C110.1,148.4,110.2,145.5,110.3,142.6z"/>
		
			<linearGradient id="SVGID_4_" gradientUnits="userSpaceOnUse" x1="106.297" y1="127.9785" x2="106.297" y2="0.7625" gradientTransform="matrix(1 0 0 -1 0 165)">
			<stop  offset="0" style="stop-color:#FF918D"/>
			<stop  offset="1" style="stop-color:#EB4947"/>
		</linearGradient>
		<path fill="url(#SVGID_4_)" d="M110.3,142.6c0.2-3.8,0.1-7.6,0.1-11.3c0-3.1-0.2-6.2-0.4-9.4c-0.2-3.7-0.4-7.4-0.6-11.2
			c0-0.1,0-0.3-0.1-0.4c-0.1-0.5,0-0.9,0.5-1.3c2-1.7,3.9-3.5,5.4-5.8c0.7-1.1,1.1-2.3,1.1-3.6c0.2-3.3,0.6-6.5,1.9-9.6
			c0.1-0.1,0.1-0.3,0.2-0.4c0.2-0.6,0.4-1.3,0.5-1.9c0.3-1.4-0.5-2.1-1.9-1.9c-1.4,0.7-2.1,1.8-2.6,3.2c-0.4,1.2-0.8,2.4-1.2,3.6
			c-0.3,0.7-0.4,1.5-0.8,2.3c0-2.1-0.1-4.1-0.3-6.1c-0.3-3.2-0.6-6.4-1.1-9.6c-0.2-1.1-0.2-2.3-0.6-3.3c-0.3-0.7-0.7-1.1-1.4-1.1
			c-0.7,0-1.2,0.4-1.5,1.1c-0.2,0.6-0.2,1.3-0.2,2c0.2,2.2,0.4,4.4,0.6,6.6c0.2,2,0.3,4,0.5,6c0,0.3-0.1,0.6-0.4,0.6
			s-0.4-0.2-0.5-0.5c-0.2-2.1-0.4-4.1-0.6-6.2c-0.3-3-0.5-6.1-0.8-9.1c-0.1-0.8-0.1-1.5-0.4-2.3c-0.4-0.9-0.9-1.3-1.7-1.2
			c-1.2,0.1-2,1.2-1.9,2.7c0.1,1.2,0.2,2.4,0.3,3.6c0.2,2.1,0.4,4.3,0.6,6.4c0.2,1.9,0.3,3.9,0.5,5.8c0,0.3,0,0.6-0.4,0.7
			c-0.4,0-0.4-0.3-0.5-0.6c-0.1-1.5-0.3-3.1-0.4-4.6c-0.3-3-0.5-5.9-0.8-8.9c-0.1-1.5-0.9-2.5-2.3-2.3c-0.6,0.2-1.1,0.5-1.3,1.1
			c-0.3,0.6-0.3,1.3-0.2,2c0.1,0.6,0.1,1.2,0.1,1.7c0.2,0.8,0.2,1.7,0.3,2.5c0.3,3.2,0.6,6.5,0.9,9.7c0,0.2,0,0.3,0,0.5
			c0,0.3-0.1,0.4-0.4,0.4s-0.4-0.1-0.5-0.4c-0.1-1.3-0.2-2.7-0.4-4c-0.2-2.1-0.3-4.2-0.6-6.2c0-0.3-0.2-0.6-0.2-0.9l0,0l0,0
			c-0.1-0.1-0.2-0.2-0.3-0.3c-0.6-0.6-1.1-0.8-1.8-0.4c-0.6,0.3-0.9,0.8-1,1.5c-0.2,1.1,0.1,2.1,0.1,3.2c0.2,0.9,0.2,1.8,0.3,2.6
			c0.1,3,0.1,6,0.1,9c0.1,3.6,1,7,3.4,9.8c1.1,1.3,2.3,2.5,3.9,3.3c0.5,0.2,0.6,0.5,0.5,1c-0.5,3.6-1.1,7.2-1.6,10.8
			c-0.5,3.3-0.9,6.5-1.3,9.8c-0.3,2.6-0.6,5.2-0.8,7.8c-0.2,3.3-0.3,6.5-0.4,9.8c-0.1,4.5-0.1,9.1-0.1,13.6
			c3.9-0.8,7.7-1.8,11.4-3.2c0-2.7,0.1-5.4,0.1-8.1C110.1,148.4,110.2,145.5,110.3,142.6z"/>
		<path fill="#FFFFFF" d="M97.3,81.1L97.3,81.1c-0.1-0.1-0.2-0.2-0.3-0.3C97.2,80.9,97.2,81,97.3,81.1z"/>
		
			<linearGradient id="SVGID_5_" gradientUnits="userSpaceOnUse" x1="97.15" y1="127.9785" x2="97.15" y2="0.7625" gradientTransform="matrix(1 0 0 -1 0 165)">
			<stop  offset="0" style="stop-color:#FF918D"/>
			<stop  offset="1" style="stop-color:#EB4947"/>
		</linearGradient>
		<path fill="url(#SVGID_5_)" d="M97.3,81.1L97.3,81.1c-0.1-0.1-0.2-0.2-0.3-0.3C97.2,80.9,97.2,81,97.3,81.1z"/>
		
			<linearGradient id="SVGID_6_" gradientUnits="userSpaceOnUse" x1="97.15" y1="127.9785" x2="97.15" y2="0.7625" gradientTransform="matrix(1 0 0 -1 0 165)">
			<stop  offset="0" style="stop-color:#FF918D"/>
			<stop  offset="1" style="stop-color:#EB4947"/>
		</linearGradient>
		<path fill="url(#SVGID_6_)" d="M97.3,81.1L97.3,81.1c-0.1-0.1-0.2-0.2-0.3-0.3C97.2,80.9,97.2,81,97.3,81.1z"/>
		<path fill="#FFFFFF" d="M72.4,151c0.2-5.4,0.4-10.7,0.2-16.1c-0.1-4-0.4-8-0.7-12c-0.2-2.7-0.3-5.4-0.5-8.1
			c-0.1-1.8-0.2-3.6-0.4-5.4c0-0.4,0.1-0.6,0.4-0.8c3.6-2.6,5.5-6.1,6-10.5c0.2-2.3-0.1-4.7-0.2-7c-0.1-2.4-0.5-4.8-0.4-7.2
			c0-0.1,0-0.2,0.1-0.3c0-0.3,0-0.5,0-0.8s0-0.5,0-0.8s0-0.5-0.1-0.8c0-0.3-0.1-0.5-0.2-0.8c-0.3-0.8-0.8-1.2-1.5-1.3
			c-0.7,0-1.2,0.4-1.5,1.1c-0.2,0.8-0.2,1.6-0.2,2.3c0,2.7,0,5.5,0,8.2c0,0.2,0,0.4,0,0.5c-0.1,0.2-0.2,0.3-0.5,0.3
			c-0.2,0-0.4-0.1-0.4-0.3c0-0.1,0-0.2,0-0.2c0-3.9,0-7.8,0-11.7c0-0.1,0-0.2,0-0.3c0-0.8,0-1.6,0-2.4c0-0.4-0.1-0.7-0.2-1.1
			c-0.1-0.2-0.2-0.4-0.3-0.6c-0.2-0.3-0.5-0.5-0.9-0.7c-1.6-0.1-2,0.4-2.3,1.6c-0.1,0.3-0.1,0.6-0.1,0.8c0,4.3,0,8.6,0,12.8
			c0,0.2,0,0.4,0,0.5c0,0.2-0.2,0.3-0.5,0.3c-0.2,0-0.4-0.1-0.4-0.4c0-0.2,0-0.3,0-0.5c0-5,0-10,0-15c0-0.7-0.1-1.4-0.5-2
			s-1-0.8-1.7-0.7c-0.6,0-1,0.4-1.3,1S64,73.8,64,74.4c0,5.1,0,10.3,0,15.4c0,0.2,0,0.4,0,0.6s-0.2,0.3-0.4,0.3s-0.4-0.1-0.4-0.3
			c0-0.2,0-0.3,0-0.5c0-4,0-8,0-12.1c0-0.6-0.1-1.2-0.3-1.7c-0.3-0.7-0.9-1.2-1.6-1.2c-0.7,0-1.1,0.5-1.3,1.4c0,0.9,0,1.5,0,2.2
			c-0.2,4.5-0.3,8.9-0.2,13.4c0,1,0,1.9,0,2.9c0-0.1-0.1-0.2-0.2-0.3c-0.7-1.7-1.4-3.3-2.2-5c-0.6-1.4-1.4-2.5-3-2.9
			c-1.3,0.1-1.8,0.6-1.5,1.9c0.1,0.6,0.4,1.2,0.7,1.8c1,1.7,1.7,3.5,2.1,5.4c0.4,1.7,0.9,3.5,1,5.3c0.1,0.8,0.6,1.4,1.1,2.1
			c1.4,2,3.3,3.6,5.3,4.9c1,0.7,1.3,1.4,1.1,2.6c-0.5,3.6-0.8,7.2-1.2,10.8c-0.5,4.2-0.8,8.4-1.2,12.6c-0.2,2-0.3,4-0.3,6
			c-0.2,7.1,0,14.1-0.1,21.2c0,0.1,0,0.3,0,0.4c3.4,0.9,6.9,1.6,10.4,2c0.1-1.1,0.1-2.2,0.2-3.3C72.1,157.1,72.3,154,72.4,151z"/>
		
			<linearGradient id="SVGID_7_" gradientUnits="userSpaceOnUse" x1="65.1414" y1="127.9785" x2="65.1414" y2="0.7625" gradientTransform="matrix(1 0 0 -1 0 165)">
			<stop  offset="0" style="stop-color:#FF918D"/>
			<stop  offset="1" style="stop-color:#EB4947"/>
		</linearGradient>
		<path fill="url(#SVGID_7_)" d="M72.4,151c0.2-5.4,0.4-10.7,0.2-16.1c-0.1-4-0.4-8-0.7-12c-0.2-2.7-0.3-5.4-0.5-8.1
			c-0.1-1.8-0.2-3.6-0.4-5.4c0-0.4,0.1-0.6,0.4-0.8c3.6-2.6,5.5-6.1,6-10.5c0.2-2.3-0.1-4.7-0.2-7c-0.1-2.4-0.5-4.8-0.4-7.2
			c0-0.1,0-0.2,0.1-0.3c0-0.3,0-0.5,0-0.8s0-0.5,0-0.8s0-0.5-0.1-0.8c0-0.3-0.1-0.5-0.2-0.8c-0.3-0.8-0.8-1.2-1.5-1.3
			c-0.7,0-1.2,0.4-1.5,1.1c-0.2,0.8-0.2,1.6-0.2,2.3c0,2.7,0,5.5,0,8.2c0,0.2,0,0.4,0,0.5c-0.1,0.2-0.2,0.3-0.5,0.3
			c-0.2,0-0.4-0.1-0.4-0.3c0-0.1,0-0.2,0-0.2c0-3.9,0-7.8,0-11.7c0-0.1,0-0.2,0-0.3c0-0.8,0-1.6,0-2.4c0-0.4-0.1-0.7-0.2-1.1
			c-0.1-0.2-0.2-0.4-0.3-0.6c-0.2-0.3-0.5-0.5-0.9-0.7c-1.6-0.1-2,0.4-2.3,1.6c-0.1,0.3-0.1,0.6-0.1,0.8c0,4.3,0,8.6,0,12.8
			c0,0.2,0,0.4,0,0.5c0,0.2-0.2,0.3-0.5,0.3c-0.2,0-0.4-0.1-0.4-0.4c0-0.2,0-0.3,0-0.5c0-5,0-10,0-15c0-0.7-0.1-1.4-0.5-2
			s-1-0.8-1.7-0.7c-0.6,0-1,0.4-1.3,1S64,73.8,64,74.4c0,5.1,0,10.3,0,15.4c0,0.2,0,0.4,0,0.6s-0.2,0.3-0.4,0.3s-0.4-0.1-0.4-0.3
			c0-0.2,0-0.3,0-0.5c0-4,0-8,0-12.1c0-0.6-0.1-1.2-0.3-1.7c-0.3-0.7-0.9-1.2-1.6-1.2c-0.7,0-1.1,0.5-1.3,1.4c0,0.9,0,1.5,0,2.2
			c-0.2,4.5-0.3,8.9-0.2,13.4c0,1,0,1.9,0,2.9c0-0.1-0.1-0.2-0.2-0.3c-0.7-1.7-1.4-3.3-2.2-5c-0.6-1.4-1.4-2.5-3-2.9
			c-1.3,0.1-1.8,0.6-1.5,1.9c0.1,0.6,0.4,1.2,0.7,1.8c1,1.7,1.7,3.5,2.1,5.4c0.4,1.7,0.9,3.5,1,5.3c0.1,0.8,0.6,1.4,1.1,2.1
			c1.4,2,3.3,3.6,5.3,4.9c1,0.7,1.3,1.4,1.1,2.6c-0.5,3.6-0.8,7.2-1.2,10.8c-0.5,4.2-0.8,8.4-1.2,12.6c-0.2,2-0.3,4-0.3,6
			c-0.2,7.1,0,14.1-0.1,21.2c0,0.1,0,0.3,0,0.4c3.4,0.9,6.9,1.6,10.4,2c0.1-1.1,0.1-2.2,0.2-3.3C72.1,157.1,72.3,154,72.4,151z"/>
		<path fill="#FFFFFF" d="M76.8,82.8c0-0.3,0-0.5,0-0.8C76.8,82.3,76.8,82.6,76.8,82.8z"/>
		
			<linearGradient id="SVGID_8_" gradientUnits="userSpaceOnUse" x1="76.8" y1="127.9785" x2="76.8" y2="0.7625" gradientTransform="matrix(1 0 0 -1 0 165)">
			<stop  offset="0" style="stop-color:#FF918D"/>
			<stop  offset="1" style="stop-color:#EB4947"/>
		</linearGradient>
		<path fill="url(#SVGID_8_)" d="M76.8,82.8c0-0.3,0-0.5,0-0.8C76.8,82.3,76.8,82.6,76.8,82.8z"/>
		
			<linearGradient id="SVGID_9_" gradientUnits="userSpaceOnUse" x1="76.8" y1="127.9785" x2="76.8" y2="0.7625" gradientTransform="matrix(1 0 0 -1 0 165)">
			<stop  offset="0" style="stop-color:#FF918D"/>
			<stop  offset="1" style="stop-color:#EB4947"/>
		</linearGradient>
		<path fill="url(#SVGID_9_)" d="M76.8,82.8c0-0.3,0-0.5,0-0.8C76.8,82.3,76.8,82.6,76.8,82.8z"/>
		<path fill="#FFFFFF" d="M37,138.6c-0.3-3.2-0.6-6.4-0.9-9.6c-0.3-2.7-0.5-5.3-0.8-8c-0.1-0.9,0-1.7,0.6-2.4c1-1.2,1.8-2.5,2.5-3.9
			c0.6-1.2,1.2-2.4,1.1-3.8c-0.1-1.2-0.3-2.4-0.4-3.6c-0.1-1.5-0.2-3.1,0-4.6c0.1-1.1,0.4-2.3,0.4-3.4c0-0.5-0.1-1.1-0.7-1.3
			c-0.6-0.2-1.1,0-1.5,0.4c-0.7,0.6-1,1.4-1.1,2.2c-0.2,1.3-0.3,2.6-0.5,3.8c-0.1,0.7-0.1,1.4-0.2,2c-0.1-0.1-0.2-0.2-0.2-0.3
			c-1.2-4.9-2.8-9.5-4.5-14.2c-0.2-0.5-0.3-0.9-0.7-1.3c-0.7-0.8-1.8-0.6-2.2,0.5c-0.2,0.6-0.1,1.2,0.1,1.8c0.4,1.4,0.8,2.7,1.2,4
			c0.7,2.2,1.3,4.4,2,6.6c0.1,0.4,0.2,0.7-0.3,0.7c-0.3,0-0.4-0.3-0.4-0.5c-1.2-3.9-2.3-7.7-3.5-11.6c-0.3-1-0.5-2.1-1.1-3
			c-0.5-0.8-1.3-1-2-0.5C23,89,22.7,90,23.1,91c1.1,3.5,2.1,6.9,3.2,10.4c0.3,1,0.6,1.9,0.9,2.9c0.1,0.2,0.1,0.5-0.2,0.6
			c-0.3,0.1-0.4-0.1-0.5-0.3c0-0.1-0.1-0.2-0.1-0.3c-1-3.3-2-6.7-3.1-10c-0.2-0.6-0.3-1.3-0.7-1.8c-0.4-0.5-0.8-0.8-1.5-0.7
			c-0.6,0.1-1.1,0.5-1.3,1.1c-0.2,0.7,0,1.3,0.2,1.9c1.2,3.9,2.4,7.8,3.6,11.7c0.1,0.3,0.2,0.6-0.2,0.7c-0.4,0.1-0.4-0.2-0.5-0.5
			c-0.6-1.9-1.1-3.7-1.7-5.5c-0.3-1.1-0.5-2.2-1.1-3.1c-0.4-0.7-1.1-1-1.7-0.9s-0.3,0.6-1.3,1.1c0,0.3,0,0.6,0,1
			c1,2.6,1.7,5.3,2.3,8c0.4,1.8,0.9,3.5,1.4,5.2c0.7,2.4,2.2,4.2,4,5.9c1,0.9,2.1,1.7,3.2,2.4c0.3,0.2,0.5,0.4,0.5,0.8
			c-0.2,3.9-0.3,7.7-0.4,11.6c-0.1,2.3-0.1,4.5-0.2,6.8c0,1.1-0.1,2.2-0.1,3.2c3.2,2.9,6.6,5.5,10.2,7.8c-0.1-1.6-0.1-3.2-0.2-4.8
			C37.4,143.6,37.2,141.1,37,138.6z"/>
		
			<linearGradient id="SVGID_10_" gradientUnits="userSpaceOnUse" x1="28.3055" y1="127.9785" x2="28.3055" y2="0.7625" gradientTransform="matrix(1 0 0 -1 0 165)">
			<stop  offset="0" style="stop-color:#FF918D"/>
			<stop  offset="1" style="stop-color:#EB4947"/>
		</linearGradient>
		<path fill="url(#SVGID_10_)" d="M37,138.6c-0.3-3.2-0.6-6.4-0.9-9.6c-0.3-2.7-0.5-5.3-0.8-8c-0.1-0.9,0-1.7,0.6-2.4
			c1-1.2,1.8-2.5,2.5-3.9c0.6-1.2,1.2-2.4,1.1-3.8c-0.1-1.2-0.3-2.4-0.4-3.6c-0.1-1.5-0.2-3.1,0-4.6c0.1-1.1,0.4-2.3,0.4-3.4
			c0-0.5-0.1-1.1-0.7-1.3c-0.6-0.2-1.1,0-1.5,0.4c-0.7,0.6-1,1.4-1.1,2.2c-0.2,1.3-0.3,2.6-0.5,3.8c-0.1,0.7-0.1,1.4-0.2,2
			c-0.1-0.1-0.2-0.2-0.2-0.3c-1.2-4.9-2.8-9.5-4.5-14.2c-0.2-0.5-0.3-0.9-0.7-1.3c-0.7-0.8-1.8-0.6-2.2,0.5
			c-0.2,0.6-0.1,1.2,0.1,1.8c0.4,1.4,0.8,2.7,1.2,4c0.7,2.2,1.3,4.4,2,6.6c0.1,0.4,0.2,0.7-0.3,0.7c-0.3,0-0.4-0.3-0.4-0.5
			c-1.2-3.9-2.3-7.7-3.5-11.6c-0.3-1-0.5-2.1-1.1-3c-0.5-0.8-1.3-1-2-0.5C23,89,22.7,90,23.1,91c1.1,3.5,2.1,6.9,3.2,10.4
			c0.3,1,0.6,1.9,0.9,2.9c0.1,0.2,0.1,0.5-0.2,0.6c-0.3,0.1-0.4-0.1-0.5-0.3c0-0.1-0.1-0.2-0.1-0.3c-1-3.3-2-6.7-3.1-10
			c-0.2-0.6-0.3-1.3-0.7-1.8c-0.4-0.5-0.8-0.8-1.5-0.7c-0.6,0.1-1.1,0.5-1.3,1.1c-0.2,0.7,0,1.3,0.2,1.9c1.2,3.9,2.4,7.8,3.6,11.7
			c0.1,0.3,0.2,0.6-0.2,0.7c-0.4,0.1-0.4-0.2-0.5-0.5c-0.6-1.9-1.1-3.7-1.7-5.5c-0.3-1.1-0.5-2.2-1.1-3.1c-0.4-0.7-1.1-1-1.7-0.9
			s-0.3,0.6-1.3,1.1c0,0.3,0,0.6,0,1c1,2.6,1.7,5.3,2.3,8c0.4,1.8,0.9,3.5,1.4,5.2c0.7,2.4,2.2,4.2,4,5.9c1,0.9,2.1,1.7,3.2,2.4
			c0.3,0.2,0.5,0.4,0.5,0.8c-0.2,3.9-0.3,7.7-0.4,11.6c-0.1,2.3-0.1,4.5-0.2,6.8c0,1.1-0.1,2.2-0.1,3.2c3.2,2.9,6.6,5.5,10.2,7.8
			c-0.1-1.6-0.1-3.2-0.2-4.8C37.4,143.6,37.2,141.1,37,138.6z"/>
		<path fill="#FFFFFF" d="M142.2,138.3c-0.2-1.2-0.4-2.4-0.6-3.7c-0.7-3.8-1.4-7.6-2.1-11.4c-0.1-0.4,0-0.6,0.4-0.8
			c1.1-0.6,2.1-1.4,3.1-2.3c1.9-1.8,3.4-3.8,4-6.4c1-3.9,1.7-7.8,2.9-11.6c0.2-0.4,0.2-0.9,0-1.4s-0.5-0.8-1-0.9s-0.9,0.1-1.2,0.5
			c-0.3,0.3-0.4,0.7-0.6,1.1c-0.5,1.7-1,3.4-1.6,5.1c-0.3,0.8-0.5,1.7-0.8,2.5c-0.1,0.2-0.1,0.4-0.5,0.4c-0.3-0.1-0.3-0.3-0.2-0.6
			c0-0.1,0.1-0.3,0.1-0.4c0.7-2.3,1.4-4.7,2.1-7c0.5-1.6,1.1-3.2,1.4-4.9c0.2-0.8-0.3-1.6-1.1-1.9c-0.7-0.3-1.3,0-1.8,0.8
			c-0.1,0.2-0.3,0.5-0.3,0.8c-0.6,1.8-1.1,3.7-1.7,5.6c-0.5,1.7-1,3.4-1.6,5.1c-0.1,0.3-0.2,0.5-0.5,0.4s-0.3-0.3-0.2-0.6
			c0-0.1,0-0.1,0-0.2c1-3.1,1.9-6.3,2.9-9.4c0.4-1.2,0.9-2.4,1.1-3.7c0.1-0.9-0.3-1.6-1.1-1.9c-0.7-0.2-1.3,0-1.7,0.8
			c-0.1,0.2-0.3,0.5-0.3,0.8c-1,3.2-2,6.5-3,9.7c-0.3,1.1-0.7,2.3-1,3.4c-0.1,0.3-0.2,0.4-0.5,0.3s-0.3-0.3-0.2-0.5
			c0-0.2,0.1-0.3,0.1-0.5c1-3.3,2-6.6,3-9.9c0.2-0.6,0.3-1.1,0-1.7c-0.2-0.5-0.5-0.8-1-0.8c-0.5-0.1-0.9,0.1-1.2,0.5
			c-0.2,0.3-0.4,0.7-0.6,1.1c-1.6,4.4-3.2,8.9-4.3,13.5c0,0.1,0,0.3-0.2,0.3c-0.2-1.4-0.4-2.9-0.5-4.3c-0.1-1.3-0.5-2.5-1.5-3.5
			c-1.3-0.6-2-0.1-2,1.3c0,0.4,0.1,0.9,0.1,1.3c0.6,3.1,0.4,6.2-0.1,9.2c-0.1,0.4-0.1,0.8,0,1.2c0.2,1.3,0.8,2.5,1.5,3.7
			c0.8,1.2,1.7,2.4,2.5,3.6c0.1,0.2,0.2,0.4,0.2,0.6c0,2.6,0.1,5.2,0.1,7.8c0.1,4.7,0.2,9.4,0.5,14.2c0,0.9,0.1,1.7,0.2,2.6
			C136.7,143.7,139.5,141.1,142.2,138.3z"/>
		
			<linearGradient id="SVGID_11_" gradientUnits="userSpaceOnUse" x1="139.1875" y1="127.9785" x2="139.1875" y2="0.7625" gradientTransform="matrix(1 0 0 -1 0 165)">
			<stop  offset="0" style="stop-color:#FF918D"/>
			<stop  offset="1" style="stop-color:#EB4947"/>
		</linearGradient>
		<path fill="url(#SVGID_11_)" d="M142.2,138.3c-0.2-1.2-0.4-2.4-0.6-3.7c-0.7-3.8-1.4-7.6-2.1-11.4c-0.1-0.4,0-0.6,0.4-0.8
			c1.1-0.6,2.1-1.4,3.1-2.3c1.9-1.8,3.4-3.8,4-6.4c1-3.9,1.7-7.8,2.9-11.6c0.2-0.4,0.2-0.9,0-1.4s-0.5-0.8-1-0.9s-0.9,0.1-1.2,0.5
			c-0.3,0.3-0.4,0.7-0.6,1.1c-0.5,1.7-1,3.4-1.6,5.1c-0.3,0.8-0.5,1.7-0.8,2.5c-0.1,0.2-0.1,0.4-0.5,0.4c-0.3-0.1-0.3-0.3-0.2-0.6
			c0-0.1,0.1-0.3,0.1-0.4c0.7-2.3,1.4-4.7,2.1-7c0.5-1.6,1.1-3.2,1.4-4.9c0.2-0.8-0.3-1.6-1.1-1.9c-0.7-0.3-1.3,0-1.8,0.8
			c-0.1,0.2-0.3,0.5-0.3,0.8c-0.6,1.8-1.1,3.7-1.7,5.6c-0.5,1.7-1,3.4-1.6,5.1c-0.1,0.3-0.2,0.5-0.5,0.4s-0.3-0.3-0.2-0.6
			c0-0.1,0-0.1,0-0.2c1-3.1,1.9-6.3,2.9-9.4c0.4-1.2,0.9-2.4,1.1-3.7c0.1-0.9-0.3-1.6-1.1-1.9c-0.7-0.2-1.3,0-1.7,0.8
			c-0.1,0.2-0.3,0.5-0.3,0.8c-1,3.2-2,6.5-3,9.7c-0.3,1.1-0.7,2.3-1,3.4c-0.1,0.3-0.2,0.4-0.5,0.3s-0.3-0.3-0.2-0.5
			c0-0.2,0.1-0.3,0.1-0.5c1-3.3,2-6.6,3-9.9c0.2-0.6,0.3-1.1,0-1.7c-0.2-0.5-0.5-0.8-1-0.8c-0.5-0.1-0.9,0.1-1.2,0.5
			c-0.2,0.3-0.4,0.7-0.6,1.1c-1.6,4.4-3.2,8.9-4.3,13.5c0,0.1,0,0.3-0.2,0.3c-0.2-1.4-0.4-2.9-0.5-4.3c-0.1-1.3-0.5-2.5-1.5-3.5
			c-1.3-0.6-2-0.1-2,1.3c0,0.4,0.1,0.9,0.1,1.3c0.6,3.1,0.4,6.2-0.1,9.2c-0.1,0.4-0.1,0.8,0,1.2c0.2,1.3,0.8,2.5,1.5,3.7
			c0.8,1.2,1.7,2.4,2.5,3.6c0.1,0.2,0.2,0.4,0.2,0.6c0,2.6,0.1,5.2,0.1,7.8c0.1,4.7,0.2,9.4,0.5,14.2c0,0.9,0.1,1.7,0.2,2.6
			C136.7,143.7,139.5,141.1,142.2,138.3z"/>
	</g>
</g>
</svg>
